<?xml version="1.0" encoding="UTF-8"?>
<svg width="20px" height="20px" viewBox="0 0 20 20" version="1.1" xmlns="http://www.w3.org/2000/svg" xmlns:xlink="http://www.w3.org/1999/xlink">
    <title>i/general/acknowledge</title>
    <g id="i/general/acknowledge" stroke="none" stroke-width="1" fill="none" fill-rule="evenodd">
        <path d="M10,20A10,10,0,1,1,20,10,10,10,0,0,1,10,20ZM10,1a9,9,0,1,0,9,9A9,9,0,0,0,10,1Zm0,2c1.42,0,2.57,1.64,2.57,3.67s-1.15,3.7-2.57,3.7S7.43,8.72,7.43,6.7,8.58,3,10,3Zm2.49,7.45a4.24,4.24,0,0,1-.62,1.64A2.31,2.31,0,0,1,10,13.3a2.31,2.31,0,0,1-1.88-1.17,4.24,4.24,0,0,1-.62-1.64,4.4,4.4,0,0,0-3,3.92,1.34,1.34,0,0,0,1.34,1.34h0a1.3,1.3,0,0,0,.6-.15A4.66,4.66,0,0,0,10,17a4.66,4.66,0,0,0,3.56-1.37,1.3,1.3,0,0,0,.6.15,1.34,1.34,0,0,0,1.34-1.34s0,0,0,0a4.4,4.4,0,0,0-3-3.92ZM12,10h0M8,10H8" id="Shape" fill="#F99D1C" fill-rule="nonzero"></path>
    </g>
</svg>
