<?xml version="1.0" encoding="UTF-8"?>
<svg width="30px" height="30px" viewBox="0 0 30 30" version="1.1" xmlns="http://www.w3.org/2000/svg" xmlns:xlink="http://www.w3.org/1999/xlink">
    <title>i/general/document</title>
    <g id="i/general/document" stroke="none" stroke-width="1" fill="none" fill-rule="evenodd">
        <path d="M19.875,7 L12.875,7 C12.7091805,7 12.5500931,7.06558995 12.4325,7.18250001 L9.18250001,10.4325 C9.06558995,10.5500931 9,10.7091805 9,10.875 L9,21.875 C9.00137487,22.49575 9.50425004,22.9986251 10.125,23 L19.875,23 C20.49575,22.9986251 20.9986251,22.49575 21,21.875 L21,8.12500001 C20.9986251,7.50425004 20.49575,7.00137487 19.875,7 Z M12.75,8.63500001 L12.75,11 L10.385,11 L12.75,8.63500001 Z M19.75,21.75 L10.25,21.75 L10.25,12.25 L13,12.25 C13.5522848,12.25 14,11.8022848 14,11.25 L14,8.25000001 L19.75,8.25000001 L19.75,21.75 Z" id="Shape" fill="#0079AA" fill-rule="nonzero"></path>
    </g>
</svg>