<?xml version="1.0" encoding="UTF-8"?>
<svg width="30px" height="30px" viewBox="0 0 30 30" version="1.1" xmlns="http://www.w3.org/2000/svg" xmlns:xlink="http://www.w3.org/1999/xlink">
  <title>i/general/download</title>
  <g id="i/general/download" stroke="none" stroke-width="1" fill="none" fill-rule="evenodd">
    <g id="Group" transform="translate(7.000000, 7.000000)" fill="#0079AA" fill-rule="nonzero">
      <g id="i/cmd/add-copy">
        <path d="M14.25,16 L1.75,16 C0.783501688,16 0,15.2164983 0,14.25 L0,11.25 C0,10.8357864 0.335786438,10.5 0.75,10.5 C1.16421356,10.5 1.5,10.8357864 1.5,11.25 L1.5,14.25 C1.5,14.3880712 1.61192881,14.5 1.75,14.5 L14.25,14.5 C14.3880712,14.5 14.5,14.3880712 14.5,14.25 L14.5,11.25 C14.5,10.8357864 14.8357864,10.5 15.25,10.5 C15.6642136,10.5 16,10.8357864 16,11.25 L16,14.25 C16,15.2164983 15.2164983,16 14.25,16 Z M8.5275,10.4125 L8.5275,10.4125 L11.5275,7.4125 C11.8028589,7.11699025 11.7947339,6.65649028 11.5091218,6.3708782 C11.2235097,6.08526612 10.7630098,6.07714114 10.4675,6.3525 L8.75,8.07 L8.75,0.75 C8.75,0.335786438 8.41421356,0 8,0 C7.58578644,0 7.25,0.335786438 7.25,0.75 L7.25,8.07 L5.525,6.345 C5.22949025,6.06964114 4.76899028,6.07776612 4.4833782,6.3633782 C4.19776612,6.64899028 4.18964114,7.10949025 4.465,7.405 L7.465,10.405 L7.465,10.405 C7.465,10.405 7.465,10.405 7.465,10.405 L7.465,10.405 C7.60509896,10.5426424 7.79359956,10.6198379 7.99,10.62 L7.99,10.62 C8.1896476,10.6251563 8.38310666,10.5504721 8.5275,10.4125 Z" id="Shape"></path>
      </g>
    </g>
  </g>
</svg>
