<?xml version="1.0" encoding="UTF-8"?>
<svg width="30px" height="30px" viewBox="0 0 30 30" version="1.1" xmlns="http://www.w3.org/2000/svg" xmlns:xlink="http://www.w3.org/1999/xlink">
    <title>i/general/export-pdf</title>
    <g id="i/general/export-pdf" stroke="none" stroke-width="1" fill="none" fill-rule="evenodd">
        <g id="Group" transform="translate(7.000000, 7.000000)" fill="#0079AA" fill-rule="nonzero">
            <g id="i/general/export-pdf">
                <path d="M14.87,11.195 C14.8700089,11.3267994 14.8199695,11.453685 14.73,11.55 C14.6312659,11.628261 14.5047535,11.6626001 14.38,11.645 C14.1233055,11.6107999 13.8759941,11.5258131 13.6525,11.395 C13.3761293,11.2402065 13.1135054,11.0620572 12.8675,10.8625 L13.3425,10.8375 C13.47,10.8375 13.5925,10.8375 13.7275,10.8375 C13.8625,10.8375 13.9775,10.8375 14.105,10.8575 C14.372711,10.8759787 14.6342538,10.9464594 14.875,11.065 C14.8560254,10.6878598 14.644498,10.3469608 14.315,10.1625 C14.0253157,9.98226933 13.6954888,9.87662166 13.355,9.855 C13.0443621,9.84678325 12.733675,9.8693939 12.4275,9.9225 C12.265,9.945 12.1075,9.975 11.9525,10.01 C11.380363,9.4023611 10.8964638,8.7173282 10.515,7.975 C10.43,7.805 10.355,7.63 10.2825,7.4525 C10.2825,7.435 10.2825,7.4175 10.2825,7.4 C10.353962,6.90335252 10.3840654,6.40162913 10.3725,5.9 C10.2825,6.2375 10.18,6.565 10.075,6.9 C9.88750589,6.30160635 9.82454577,5.67115435 9.89,5.0475 C9.91828739,4.80184497 9.96848734,4.55921187 10.04,4.3225 C10.04,4.3225 10.04,4.3225 10.04,4.31 C10.0753257,4.39585158 10.1062,4.48346795 10.1325,4.5725 C10.2,4.8225 10.275,5.0725 10.3825,5.35 C10.6070262,5.11287503 10.7626114,4.81899194 10.8325,4.5 C10.8679802,4.34178313 10.8806085,4.17929889 10.87,4.0175 C10.8640261,3.9275396 10.8514928,3.83813533 10.8325,3.75 C10.8088487,3.62885663 10.7603267,3.51393597 10.69,3.4125 C10.6236626,3.3137469 10.5387531,3.2288374 10.44,3.1625 C10.396886,3.13569645 10.3517495,3.11229231 10.305,3.0925 C10.2464187,3.07171002 10.1862117,3.05582207 10.125,3.045 C10.0560376,3.03748331 9.98646245,3.03748331 9.9175,3.045 C9.85425028,3.05634497 9.79228072,3.07393093 9.7325,3.0975 C9.59331971,3.15856187 9.47262433,3.25511818 9.3825,3.3775 C9.35734438,3.4115956 9.33478111,3.4475297 9.315,3.485 L9.2725,3.5775 C9.235,3.7075 9.22,3.7525 9.1925,3.8275 C9.165,3.9025 9.145,3.9725 9.125,4.0475 C9.04064508,4.34285218 8.98702715,4.64612855 8.965,4.9525 C8.90043891,6.0278654 9.14507613,7.09923764 9.67,8.04 C9.5875,8.255 9.4975,8.4675 9.4,8.675 C9.00705946,9.53885042 8.5315135,10.3626836 7.98,11.135 C7.8425,11.325 7.6975,11.5075 7.5475,11.6825 C7.3975,11.8575 7.25,12.035 7.1,12.195 C6.97828021,12.3212137 6.84886619,12.4397736 6.7125,12.55 C6.8925,12.2425 7.11,11.9075 7.3075,11.5275 C6.8210215,11.702039 6.3758744,11.9752555 6,12.33 C5.89710284,12.4287845 5.80645265,12.5395791 5.73,12.66 C5.63188885,12.8087126 5.57733329,12.9819049 5.5725,13.16 C5.56859139,13.3249105 5.62454161,13.4856564 5.73,13.6125 C5.76337767,13.6530806 5.80017963,13.6907189 5.84,13.725 C5.94031444,13.8040208 6.06250445,13.8502784 6.19,13.8575 C6.28753399,13.8658784 6.38577932,13.856562 6.48,13.83 C6.76086297,13.7439142 7.02059831,13.5999952 7.2425,13.4075 C7.44699385,13.2407458 7.63838912,13.0585441 7.815,12.8625 C8.1491892,12.5012826 8.44882977,12.1095737 8.71,11.6925 L10.135,11.355 C10.6775,11.2275 11.2175,11.105 11.755,11.0125 L12.255,10.935 C12.6534388,11.2250538 13.0879178,11.4620424 13.5475,11.64 C13.8148006,11.7486623 14.1015282,11.8014134 14.39,11.795 C14.5452508,11.7895023 14.6915319,11.7208766 14.795,11.605 C14.8741282,11.4839839 14.9011634,11.3361914 14.87,11.195 L14.87,11.195 Z M6.5,13.1325 C6.4825,13.185 6.465,13.1325 6.485,13.0675 L6.485,13.0425 C6.4954785,13.0713259 6.50056317,13.1018339 6.5,13.1325 Z M9.945,10.7625 L9.565,10.97 C9.44,11.045 9.315,11.125 9.1975,11.205 C9.08,11.285 8.9775,11.355 8.87,11.4375 C9.34374813,10.6318707 9.71495789,9.77019372 9.975,8.8725 C9.995,8.8 10.0125,8.725 10.0325,8.65 C10.4008232,9.21263524 10.836556,9.72812647 11.33,10.185 C10.8488488,10.3359005 10.3820217,10.5291569 9.935,10.7625 L9.945,10.7625 Z M13.375,13.75 C13.029822,13.75 12.75,14.029822 12.75,14.375 C12.75,14.5821068 12.5821068,14.75 12.375,14.75 L3.625,14.75 C3.41789322,14.75 3.25,14.5821068 3.25,14.375 L3.25,5.25 L6,5.25 C6.55228475,5.25 7,4.80228475 7,4.25 L7,1.25 L12.375,1.25 C12.5821068,1.25 12.75,1.41789322 12.75,1.625 L12.75,6.5275 C12.75,6.87267797 13.029822,7.1525 13.375,7.1525 C13.720178,7.1525 14,6.87267797 14,6.5275 L14,1.625 C13.9986233,0.728108131 13.2718919,0.00137665918 12.375,0 L5.6925,0 C5.52637768,0.000913299902 5.36733963,0.0674037854 5.25,0.185 L2.18,3.29 C2.064842,3.4075323 2.00023737,3.56545472 2,3.73 L2,14.375 C2.00137666,15.2718919 2.72810813,15.9986233 3.625,16 L12.375,16 C13.2718919,15.9986233 13.9986233,15.2718919 14,14.375 C14,14.2092397 13.934152,14.0502685 13.8169417,13.9330583 C13.6997315,13.815848 13.5407603,13.75 13.375,13.75 Z M5.75,1.455 L5.75,4 L3.25,4 L3.25,4 L5.75,1.455 Z" id="Shape"></path>
            </g>
        </g>
    </g>
</svg>