<?xml version="1.0" encoding="UTF-8"?>
<svg width="30px" height="30px" viewBox="0 0 30 30" version="1.1" xmlns="http://www.w3.org/2000/svg" xmlns:xlink="http://www.w3.org/1999/xlink">
    <title>i/general/export-excel</title>
    <g id="i/general/export-excel" stroke="none" stroke-width="1" fill="none" fill-rule="evenodd">
        <g id="Group" transform="translate(7.000000, 7.000000)" fill="#0079AA" fill-rule="nonzero">
            <g id="i/general/export-excel">
                <path d="M4.875,7.75 C5.22017797,7.75 5.5,7.47017797 5.5,7.125 C5.5,6.77982203 5.22017797,6.5 4.875,6.5 L1.25,6.5 L1.25,4.75 L13.375,4.75 C13.720178,4.75 14,4.47017797 14,4.125 L14,0.625 C14,0.459239694 13.934152,0.300268498 13.8169417,0.183058262 C13.6997315,0.0658480252 13.5407603,0 13.375,0 L0.625,0 C0.279822031,0 0,0.279822031 0,0.625 L0,13.375 C0,13.720178 0.279822031,14 0.625,14 L4.875,14 C5.22017797,14 5.5,13.720178 5.5,13.375 C5.5,13.029822 5.22017797,12.75 4.875,12.75 L1.25,12.75 L1.25,10.75 L4.875,10.75 C5.22017796,10.75 5.5,10.470178 5.5,10.125 C5.5,9.77982204 5.22017796,9.5 4.875,9.5 L1.25,9.5 L1.25,7.75 L4.875,7.75 Z M1.25,1.25 L12.75,1.25 L12.75,3.5 L1.25,3.5 L1.25,1.25 Z M15.5,6.5275 L7.75,6.5275 C7.47385763,6.5275 7.25,6.75135763 7.25,7.0275 L7.25,15.4725 C7.25,15.7486424 7.47385763,15.9725 7.75,15.9725 L15.5,15.9725 C15.7761424,15.9725 16,15.7486424 16,15.4725 L16,7.0275 C16,6.75135763 15.7761424,6.5275 15.5,6.5275 Z M13.8675,13.1175 C14.0787489,13.3895002 14.0295002,13.7812511 13.7575,13.9925 C13.4854998,14.2037489 13.0937489,14.1545002 12.8825,13.8825 L11.6325,12.2675 L10.3825,13.8825 C10.1712511,14.1545002 9.77950024,14.2037489 9.5075,13.9925 C9.23549976,13.7812511 9.18625108,13.3895002 9.3975,13.1175 L10.8325,11.25 L9.3825,9.3825 C9.24584591,9.2065467 9.21344229,8.97105505 9.29749527,8.76473248 C9.38154826,8.55840992 9.5692882,8.41260174 9.78999528,8.38223248 C10.0107024,8.35186322 10.2308459,8.44154669 10.3675,8.6175 L11.6175,10.2325 L12.8675,8.6175 C13.0041541,8.44154669 13.2242976,8.35186322 13.4450047,8.38223248 C13.6657118,8.41260174 13.8534517,8.55840992 13.9375047,8.76473248 C14.0215577,8.97105505 13.9891541,9.2065467 13.8525,9.3825 L12.4175,11.25 L13.8675,13.1175 Z" id="Shape"></path>
            </g>
        </g>
    </g>
</svg>