<?xml version="1.0" encoding="UTF-8"?>
<svg width="20px" height="20px" viewBox="0 0 20 20" version="1.1" xmlns="http://www.w3.org/2000/svg" xmlns:xlink="http://www.w3.org/1999/xlink">
    <title>i/cmd/gear</title>
    <g id="Web-client-(All-files)" stroke="none" stroke-width="1" fill="none" fill-rule="evenodd">
        <g id="2-Web-client---My-files" transform="translate(-15.000000, -160.000000)" fill="#FFFFFF">
            <g id="Group-21" transform="translate(0.000000, 150.000000)">
                <g id="i/cmd/gear" transform="translate(15.000000, 10.000000)">
                    <path d="M5.9375,20.0000004 C5.60587963,20.0002608 5.28774638,19.8687357 5.053125,19.634375 L0.990625,15.571875 C0.755903696,15.3374147 0.624016679,15.0192616 0.624016679,14.6875 C0.624016679,14.3557384 0.755903696,14.0375853 0.990625,13.803125 L5.053125,9.740625 C5.54155183,9.25219819 6.33344817,9.25219819 6.82187499,9.74062501 C7.31030181,10.2290518 7.31030181,11.0209482 6.821875,11.509375 L4.9,13.4375 L14.625,13.4375 C15.3153559,13.4375 15.875,13.9971441 15.875,14.6875 C15.875,15.3778559 15.3153559,15.9375 14.625,15.9375 L4.8875,15.9375 L6.821875,17.871875 C7.17534529,18.2299574 7.27966284,18.7650651 7.08657805,19.2296967 C6.89349326,19.6943283 6.44064993,19.9978993 5.9375,20.0000004 Z M14.0625,10.6250004 C13.5566166,10.6253981 13.100369,10.3208408 12.906722,9.85348764 C12.7130749,9.38613452 12.8202123,8.84813947 13.178125,8.490625 L15.1,6.5625 L5.375,6.5625 C4.68464406,6.5625 4.125,6.00285594 4.125,5.3125 C4.125,4.62214406 4.68464406,4.0625 5.375,4.0625 L15.1125,4.0625 L13.178125,2.134375 C12.6896982,1.64594817 12.6896982,0.854051837 13.178125,0.365625019 C13.6665518,-0.1228018 14.4584482,-0.122801808 14.946875,0.365625 L19.009375,4.428125 C19.2440963,4.66258532 19.3759833,4.98073844 19.3759833,5.3125 C19.3759833,5.64426156 19.2440963,5.96241468 19.009375,6.196875 L14.946875,10.259375 C14.7122536,10.4937357 14.3941204,10.6252608 14.0625,10.6250004 Z" id="Shape"></path>
                </g>
            </g>
        </g>
    </g>
</svg>