<?xml version="1.0" encoding="UTF-8"?>
<svg width="24px" height="20px" viewBox="0 0 24 20" version="1.1" xmlns="http://www.w3.org/2000/svg" xmlns:xlink="http://www.w3.org/1999/xlink">
    <title>platformbar/logo/flame</title>
    <g id="Symbols" stroke="none" stroke-width="1" fill="none" fill-rule="evenodd">
        <g id="platformbar/item/logoContainer" transform="translate(-13.000000, -15.000000)" fill="#FFFFFF" fill-rule="nonzero">
            <g id="Group" transform="translate(13.000000, 13.000000)">
                <g id="SWI-flame" transform="translate(0.000000, 2.400000)">
                    <path d="M11.2183469,9.07151096 L11.4237936,9.0129536 C12.9364991,8.55054927 14.4203512,7.99486064 15.8671763,7.34894863 C17.3333787,6.76094175 18.7091475,5.96059578 19.9522217,4.97249579 C21.2726387,3.90070819 22.2669693,2.4670934 22.8189202,0.839322154 C22.9371361,0.570960674 23.023743,0.289215355 23.0769231,0 C21.0941233,2.77171502 13.2154802,3.05962204 13.2154802,3.05962204 L15.0740564,1.31754059 C9.66341483,1.33568356 4.3934036,3.07922608 0,6.30467572 C2.97437064,6.63104151 5.77184479,7.90848356 7.99331104,9.95475113 C9.07787864,9.61316653 10.1433349,9.37405732 11.2183469,9.07151096 Z" id="Shape"></path>
                    <path d="M24,9.09756508 C19.0059909,8.86328106 14.0089382,9.49164805 9.23076923,10.9547593 C10.2354733,11.9968801 11.0741358,13.1855595 11.7177171,14.479638 C15.6672953,12.3050152 21.155732,9.50501074 24,9.09756508 Z" id="Shape"></path>
                    <path d="M12,15.1779718 C12.4993542,16.4056338 12.820383,17.6931782 12.9540905,19.0045249 L20.3076923,11.7647059 L12,15.1779718 Z" id="Shape"></path>
                </g>
            </g>
        </g>
    </g>
</svg>