<?xml version="1.0" encoding="UTF-8"?>
<svg width="30px" height="30px" viewBox="0 0 30 30" version="1.1" xmlns="http://www.w3.org/2000/svg" xmlns:xlink="http://www.w3.org/1999/xlink">
    <title>i/general/folder</title>
    <g id="i/general/folder" stroke="none" stroke-width="1" fill="none" fill-rule="evenodd">
        <path d="M21.875,11.5 L15.98,11.5 L14.8075,9.545 C14.6024175,9.20796196 14.2370262,9.0016011 13.8425,9 L8.125,9 C7.50425004,9.00137487 7.00137487,9.50425004 7,10.125 L7,20.875 C7.00137487,21.49575 7.50425004,21.9986251 8.125,22 L21.875,22 C22.49575,21.9986251 22.9986251,21.49575 23,20.875 L23,12.625 C22.9986251,12.00425 22.49575,11.5013749 21.875,11.5 Z M21.75,20.75 L8.25,20.75 L8.25,10.25 L13.77,10.25 L14.52,11.5 L10.375,11.5 C10.029822,11.5 9.75,11.779822 9.75,12.125 C9.75,12.470178 10.029822,12.75 10.375,12.75 L21.75,12.75 L21.75,20.75 Z" id="Shape" fill="#0079AA" fill-rule="nonzero"></path>
    </g>
</svg>