<?xml version="1.0" encoding="UTF-8"?>
<svg width="30px" height="30px" viewBox="0 0 30 30" version="1.1" xmlns="http://www.w3.org/2000/svg" xmlns:xlink="http://www.w3.org/1999/xlink">
    <title>i/general/folder-add</title>
    <g id="i/general/folder-add" stroke="none" stroke-width="1" fill="none" fill-rule="evenodd">
        <path d="M23,18.25 C23,20.8733526 20.8733526,23 18.25,23 C15.6266474,23 13.5,20.8733526 13.5,18.25 C13.5,15.6266474 15.6266474,13.5 18.25,13.5 C20.8733526,13.5 23,15.6266474 23,18.25 Z M19,21.02 L19,19 L21.02,19 C21.4342136,19 21.77,18.6642136 21.77,18.25 C21.77,17.8357864 21.4342136,17.5 21.02,17.5 L19,17.5 L19,15.48 C19,15.0657864 18.6642136,14.73 18.25,14.73 C17.8357864,14.73 17.5,15.0657864 17.5,15.48 L17.5,17.5 L15.48,17.5 C15.0657864,17.5 14.73,17.8357864 14.73,18.25 C14.73,18.6642136 15.0657864,19 15.48,19 L17.5,19 L17.5,21.02 C17.5,21.4342136 17.8357864,21.77 18.25,21.77 C18.6642136,21.77 19,21.4342136 19,21.02 Z M12.5,20.375 C12.5,20.029822 12.220178,19.75 11.875,19.75 L8.25,19.75 L8.25,9.25 L13.77,9.25 L14.52,10.5 L10.375,10.5 C10.029822,10.5 9.75,10.779822 9.75,11.125 C9.75,11.470178 10.029822,11.75 10.375,11.75 L21.75,11.75 L21.75,12.625 C21.75,12.970178 22.029822,13.25 22.375,13.25 C22.720178,13.25 23,12.970178 23,12.625 L23,11.625 C22.9986251,11.00425 22.49575,10.5013749 21.875,10.5 L15.98,10.5 L14.8075,8.545 C14.6024175,8.20796196 14.2370262,8.0016011 13.8425,8 L8.125,8 C7.50425004,8.00137487 7.00137487,8.50425004 7,9.125 L7,19.875 C7.00137487,20.49575 7.50425004,20.9986251 8.125,21 L11.875,21 C12.220178,21 12.5,20.720178 12.5,20.375 Z" id="Shape" fill="#0079AA" fill-rule="nonzero"></path>
    </g>
</svg>