<?xml version="1.0" encoding="UTF-8"?>
<svg width="30px" height="30px" viewBox="0 0 30 30" version="1.1" xmlns="http://www.w3.org/2000/svg" xmlns:xlink="http://www.w3.org/1999/xlink">
    <title>i/general/hard-drive-external</title>
    <g id="i/general/hard-drive-external" stroke="none" stroke-width="1" fill="none" fill-rule="evenodd">
        <g id="Group" transform="translate(7.000000, 7.000000)" fill="#0079AA" fill-rule="nonzero">
            <g id="i/general/video">
                <path d="M14.375,13.25 L1.625,13.25 C0.728108131,13.2486233 0.00137665918,12.5218919 0,11.625 L0,8.875 C0.0272920418,8.59843843 0.079163666,8.32485745 0.155,8.0575 L1.44,4.0575 C1.64860569,3.30186889 2.32638983,2.77120855 3.11,2.75 L12.89,2.75 C13.6798866,2.77350083 14.36031,3.31356786 14.5625,4.0775 L15.845,8.0575 C15.9208363,8.32485745 15.972708,8.59843843 16,8.875 L16,11.625 C15.9986233,12.5218919 15.2718919,13.2486233 14.375,13.25 Z M1.625,8.5 C1.41901897,8.50269291 1.25269291,8.66901897 1.25,8.875 L1.25,11.625 C1.25269291,11.830981 1.41901897,11.9973071 1.625,12 L14.375,12 C14.580981,11.9973071 14.7473071,11.830981 14.75,11.625 L14.75,8.875 C14.7473071,8.66901897 14.580981,8.50269291 14.375,8.5 L1.625,8.5 Z M1.73,7.25 L14.27,7.25 L13.37,4.45 C13.3250053,4.2115109 13.1308931,4.02953072 12.89,4 L3.11,4 C2.87296468,4.02805784 2.6810832,4.20580068 2.635,4.44 L1.73,7.25 Z M13.75,10.25 C13.75,10.6642136 13.4142136,11 13,11 C12.5857864,11 12.25,10.6642136 12.25,10.25 C12.25,9.83578644 12.5857864,9.5 13,9.5 C13.4142136,9.5 13.75,9.83578644 13.75,10.25 Z M10.5,9.5 C10.0857864,9.5 9.75,9.83578644 9.75,10.25 C9.75,10.6642136 10.0857864,11 10.5,11 C10.9142136,11 11.25,10.6642136 11.25,10.25 C11.25,9.83578644 10.9142136,9.5 10.5,9.5 Z" id="Shape"></path>
            </g>
        </g>
    </g>
</svg>