<?xml version="1.0" encoding="UTF-8"?>
<svg width="30px" height="30px" viewBox="0 0 30 30" version="1.1" xmlns="http://www.w3.org/2000/svg" xmlns:xlink="http://www.w3.org/1999/xlink">
    <title>i/general/image</title>
    <g id="i/general/image" stroke="none" stroke-width="1" fill="none" fill-rule="evenodd">
        <g id="Group" transform="translate(7.000000, 9.000000)" fill="#0079AA" fill-rule="nonzero">
            <path d="M15.375,0 L0.625,0 C0.279822031,0 0,0.279822031 0,0.625 L0,11.875 C0,12.220178 0.279822031,12.5 0.625,12.5 L15.375,12.5 C15.720178,12.5 16,12.220178 16,11.875 L16,0.625 C16,0.279822031 15.720178,0 15.375,0 Z M1.25,11.25 L1.25,10.25 L1.3175,10.3175 L5.125,6.5 L8.9325,10.3175 C9.17783382,10.559587 9.57216618,10.559587 9.8175,10.3175 L11.64,8.5 L14.61,11.25 L1.25,11.25 Z M14.75,9.675 L12.05,7.175 C11.9361292,7.0641528 11.7839072,7.00147317 11.625,7 C11.459288,7.00051774 11.3003977,7.06604877 11.1825,7.1825 L9.375,9 L5.5675,5.1825 C5.32216618,4.94041304 4.92783382,4.94041304 4.6825,5.1825 L1.25,8.615 L1.25,1.25 L14.75,1.25 L14.75,9.675 Z" id="Shape"></path>
            <path d="M11.875,6.125 C12.9795695,6.125 13.875,5.2295695 13.875,4.125 C13.875,3.0204305 12.9795695,2.125 11.875,2.125 C10.7704305,2.125 9.875,3.0204305 9.875,4.125 C9.875,5.2295695 10.7704305,6.125 11.875,6.125 Z M11.875,3.125 C12.4272847,3.125 12.875,3.57271525 12.875,4.125 C12.875,4.67728475 12.4272847,5.125 11.875,5.125 C11.3227153,5.125 10.875,4.67728475 10.875,4.125 C10.875,3.57271525 11.3227153,3.125 11.875,3.125 Z" id="Shape"></path>
        </g>
    </g>
</svg>