<?xml version="1.0" encoding="UTF-8"?>
<svg width="16px" height="16px" viewBox="0 0 16 16" version="1.1" xmlns="http://www.w3.org/2000/svg" xmlns:xlink="http://www.w3.org/1999/xlink">
    <title>i/obj/blog</title>
    <g id="Email-&amp;-Password-Validation" stroke="none" stroke-width="1" fill="none" fill-rule="evenodd">
        <g id="SRV-1274" transform="translate(-43.000000, -316.000000)" fill="#FFFFFF">
            <g id="Group-6" transform="translate(30.000000, 303.000000)">
                <g id="Group-13" transform="translate(13.000000, 12.000000)">
                    <g id="i/obj/blog" transform="translate(0.000000, 1.000000)">
                        <path d="M13,4.375 C13,5.13439153 12.3843915,5.75 11.625,5.75 C10.8656085,5.75 10.25,5.13439153 10.25,4.375 C10.25,3.61560847 10.8656085,3 11.625,3 C11.9896727,3 12.3394093,3.14486566 12.5972718,3.40272818 C12.8551343,3.6605907 13,4.01032733 13,4.375 Z M4.25,15.375 L4.25,14 L5.125,14 C5.47017797,14 5.75,13.720178 5.75,13.375 L5.75,12.25 L6.875,12.25 C7.04081946,12.2500224 7.19990692,12.1844101 7.3175,12.0675 L9.1375,10.25 C9.65855191,10.4174295 10.2027117,10.5017953 10.75,10.5 C14.37,10.5 16,7.43 16,5.25 C15.9970586,3.22849421 14.8337284,1.38824615 13.0089104,0.518456807 C11.1840924,-0.351332536 9.02198102,-0.0961376395 7.44981025,1.17459969 C5.87763947,2.44533702 5.17471887,4.50585943 5.6425,6.4725 L0.1825,11.9325 C0.0655899455,12.0500931 -5.73108228e-09,12.2091805 -5.73108228e-09,12.375 L-5.73108228e-09,15.375 C-5.73108228e-09,15.720178 0.279822031,16 0.625,16 L3.625,16 C3.97017797,16 4.25,15.720178 4.25,15.375 Z M1.25,12.625 L6.785,7.1 C6.9503015,6.93540978 7.00923012,6.69196693 6.9375,6.47 C6.81299443,6.07531101 6.74975929,5.66386106 6.75,5.25000006 C6.75,3.04086102 8.54086102,1.25000006 10.75,1.25000006 C12.959139,1.25000006 14.75,3.04086102 14.75,5.25000006 C14.75,6.555 13.7725,9.25000006 10.75,9.25000006 C10.2239666,9.25126011 9.70296686,9.14757011 9.2175,8.945 C8.98366509,8.84751674 8.71411321,8.9008347 8.535,9.08 L6.615,11 L5.115,11 C4.77373355,11.005461 4.49995631,11.2836899 4.5,11.625 L4.5,12.7500001 L3.625,12.7500001 C3.27982203,12.7500001 3,13.029822 3,13.375 L3,14.7500001 L1.25,14.7500001 L1.25,12.625 Z" id="Shape"></path>
                    </g>
                </g>
            </g>
        </g>
    </g>
</svg>