<?xml version="1.0" encoding="UTF-8"?>
<svg width="147px" height="147px" viewBox="0 0 147 147" version="1.1" xmlns="http://www.w3.org/2000/svg" xmlns:xlink="http://www.w3.org/1999/xlink">
    <title>img/watermark-devices-setting copy</title>
    <g id="My-Storage-(Favorites)" stroke="none" stroke-width="1" fill="none" fill-rule="evenodd" opacity="0.3">
        <g id="3.5-Web-client---Favorites" transform="translate(-759.000000, -169.000000)">
            <g id="Group-6" transform="translate(486.000000, 60.000000)">
                <g id="Group-5" transform="translate(0.000000, 34.000000)">
                    <g id="EmptyState/Situations/No-data/No-result-found" transform="translate(225.000000, 75.000000)">
                        <g id="Group" transform="translate(48.500000, 0.000000)">
                            <g id="detail-folder" transform="translate(1.000000, 1.000000)">
                                <path d="M36,16.9999982 L140,16.9999982 C142.209139,16.9999982 144,18.790861 144,20.9999982 L144,84.9999982 C144,87.209139 142.209139,88.9999982 140,88.9999982 L30,88.9999982 C27.790861,88.9999982 26,87.209139 26,84.9999982 L26,3.99999824 C26,1.790861 27.790861,-1.76197992e-06 30,-1.76197992e-06 L81.19,-1.76197992e-06 C82.3373338,-0.00107585292 83.4298915,0.490575108 84.19,1.35 L98,16.9999982" id="Path" stroke="#878787" stroke-width="2" fill="#FFFFFF" stroke-linecap="round" stroke-linejoin="round"></path>
                                <rect id="Rectangle" stroke="#878787" stroke-width="2" fill="#FFFFFF" transform="translate(71.508543, 104.500988) rotate(-45.000000) translate(-71.508543, -104.500988) " x="67.2635426" y="95.3109882" width="8.49" height="18.38"></rect>
                                <path d="M75,109.05 L76.1,107.95 C77.4127752,106.637091 79.1933608,105.899495 81.05,105.899495 C82.9066392,105.899495 84.6872248,106.637091 86,107.95 L109.1,131.05 C110.412909,132.362775 111.150505,134.143361 111.150505,136 C111.150505,137.856639 110.412909,139.637225 109.1,140.95 L108,142.05 C106.687225,143.362909 104.906639,144.100505 103.05,144.100505 C101.193361,144.100505 99.4127752,143.362909 98.1,142.05 L75,119 C73.6717279,117.685247 72.9243654,115.893926 72.9243654,114.025 C72.9243654,112.156074 73.6717279,110.364753 75,109.05 L75,109.05 Z M40,32 C62.09139,32 80,49.90861 80,72 C80,94.09139 62.09139,112 40,112 C17.90861,112 0,94.09139 0,72 C0,61.3913404 4.21427361,51.2171839 11.7157288,43.7157288 C19.2171839,36.2142736 29.3913404,32 40,32 Z" id="Shape" stroke="#878787" stroke-width="2" fill="#A6DBF8" fill-rule="nonzero"></path>
                                <circle id="Oval" fill="#FFFFFF" cx="40" cy="72" r="31"></circle>
                            </g>
                        </g>
                    </g>
                </g>
            </g>
        </g>
    </g>
</svg>