<?xml version="1.0" encoding="UTF-8"?>
<svg width="20px" height="18px" viewBox="0 0 20 18" version="1.1" xmlns="http://www.w3.org/2000/svg" xmlns:xlink="http://www.w3.org/1999/xlink">
    <title>i/cmd/gear</title>
    <g id="i/cmd/gear" fill="#FFFFFF">
        <path d="M18.59375,18.125 L1.40625,18.125 C0.630312546,18.1232814 0.00171858318,17.4946875 0,16.71875 L0,3.28125 C0.00171858318,2.50531255 0.630312546,1.87671858 1.40625,1.875 L8.553125,1.875 C9.04707033,1.87705549 9.5042265,2.13642647 9.759375,2.559375 L11.225,5 L18.59375,5 C19.3696875,5.00171858 19.9982814,5.63031255 20,6.40625 L20,16.71875 C19.9982814,17.4946875 19.3696875,18.1232814 18.59375,18.125 Z M1.5625,16.5625 L18.4375,16.5625 L18.4375,6.5625 L4.21875,6.5625 C3.78727754,6.5625 3.4375,6.21272246 3.4375,5.78125 C3.4375,5.34977754 3.78727754,5 4.21875,5 L9.4,5 L8.4625,3.4375 L1.5625,3.4375 L1.5625,16.5625 Z" id="Shape"></path>
    </g>
</svg>

