<svg width="14" height="15" viewBox="0 0 14 15" fill="none" xmlns="http://www.w3.org/2000/svg">
<path fill-rule="evenodd" clip-rule="evenodd" d="M6.66989 14.9108C6.76886 14.9688 6.88318 14.9996 6.99989 14.9998C7.1166 14.9996 7.23092 14.9688 7.32989 14.9108C8.71873 14.1059 9.92155 13.0484 10.8674 11.8006C12.6449 9.44045 13.5324 6.36545 13.4999 2.65999C13.485 2.38344 13.2663 2.15408 12.9749 2.1092C12.0517 1.95803 11.1466 1.72253 10.2724 1.40608C9.24936 1.03022 8.25676 0.585302 7.30239 0.0748288C7.11351 -0.0236409 6.88377 -0.0236409 6.69489 0.0748288C5.73916 0.585978 4.74485 1.03091 3.71989 1.40608C2.84794 1.71623 1.94513 1.94392 1.02489 2.08577C0.724447 2.13239 0.503079 2.37451 0.499887 2.65999C0.467387 6.34436 1.35239 9.41936 3.13239 11.7983C4.07517 13.0491 5.27856 14.108 6.66989 14.9108ZM4.15239 11.1208C2.60239 9.05131 1.79489 6.37241 1.74989 3.1521C2.57038 2.99107 3.37618 2.77008 4.15989 2.49116C5.1353 2.13931 6.08414 1.72586 6.99989 1.25366C7.91261 1.72734 8.85901 2.1416 9.83239 2.4935C10.6178 2.77252 11.4252 2.99351 12.2474 3.15444C12.2024 6.38881 11.3949 9.07006 9.84489 11.1232C9.07381 12.1432 8.10948 13.0219 6.99989 13.7154C5.88747 13.0234 4.92191 12.1436 4.15239 11.1208Z" fill="white"/>
</svg>
