<?xml version="1.0" encoding="UTF-8"?>
<svg width="16px" height="12px" viewBox="0 0 16 12" version="1.1" xmlns="http://www.w3.org/2000/svg" xmlns:xlink="http://www.w3.org/1999/xlink">
    <title>i/cmd/add</title>
    <g id="Page-1" stroke="none" stroke-width="1" fill="none" fill-rule="evenodd">
        <g id="Group" transform="translate(0.000000, -2.000000)" fill="#0079AA" fill-rule="nonzero">
            <g id="i/cmd/add">
                <path d="M0.75,13.5 C0.335786438,13.5 0,13.1642136 0,12.75 L0,10.25 C0,7.90278981 1.90278981,6 4.25,6 L13.44,6 L11.22,3.78 C11.0193468,3.59302942 10.9367508,3.31144446 11.0046145,3.04571109 C11.0724781,2.77997772 11.2799777,2.5724781 11.5457111,2.50461446 C11.8114445,2.43675082 12.0930294,2.51934682 12.28,2.72 L15.78,6.22 C16.0724534,6.51281755 16.0724534,6.98718245 15.78,7.28 L12.28,10.78 C11.9844902,11.0553589 11.5239903,11.0472339 11.2383782,10.7616218 C10.9527661,10.4760097 10.9446411,10.0155098 11.22,9.72 L13.44,7.5 L4.25,7.5 C2.73121694,7.5 1.5,8.73121694 1.5,10.25 L1.5,12.75 C1.5,13.1642136 1.16421356,13.5 0.75,13.5 Z" id="Path"></path>
            </g>
        </g>
    </g>
</svg>