<?xml version="1.0" encoding="UTF-8"?>
<svg width="30px" height="30px" viewBox="0 0 30 30" version="1.1" xmlns="http://www.w3.org/2000/svg" xmlns:xlink="http://www.w3.org/1999/xlink">
    <title>i/general/sound</title>
    <g id="i/general/sound" stroke="none" stroke-width="1" fill="none" fill-rule="evenodd">
        <g id="Group" transform="translate(7.000000, 7.000000)" fill="#0079AA" fill-rule="nonzero">
            <g id="i/general/video">
                <path d="M8.125,14.5425045 C7.82651149,14.5433465 7.54014627,14.424478 7.33,14.2125 L4.115,11 L1.375,11 C0.616179127,10.9986241 0.00137592519,10.3838209 0,9.625 L0,6.125 C0.00137486655,5.50425004 0.504250037,5.00137487 1.125,5 L4.125,5 L7.33,1.7875 C7.65173023,1.46616955 8.13526312,1.37011271 8.55538527,1.54406954 C8.97550742,1.71802636 9.24960005,2.12778752 9.25000279,2.5825 L9.25000279,13.4175 C9.25066572,13.7160721 9.13235306,14.0026072 8.92123015,14.2137302 C8.71010724,14.4248531 8.42357214,14.5431657 8.125,14.5425045 Z M1.25,6.25 L1.25,9.625 C1.25133003,9.69347711 1.30652289,9.74866997 1.375,9.75 L4.375,9.75 C4.54081946,9.7499776 4.69990692,9.81558995 4.8175,9.9325 L8,13.115 L8,2.885 L4.8175,6.0675 C4.69990692,6.18441005 4.54081946,6.2500224 4.375,6.25 L1.25,6.25 Z M13.4125,13.67 C14.9389986,12.1783849 15.7995708,10.1342712 15.7995708,8 C15.7995708,5.86572875 14.9389986,3.82161512 13.4125,2.33 C13.1634335,2.11084993 12.7865399,2.12448172 12.5539562,2.36105249 C12.3213726,2.59762326 12.3141485,2.97469414 12.5375,3.22 C13.8245541,4.47739266 14.5501599,6.20068219 14.5501599,8 C14.5501599,9.79931781 13.8245541,11.5226073 12.5375,12.78 C12.3636662,12.9329539 12.2886379,13.1694789 12.3425211,13.3946671 C12.3964042,13.6198552 12.5703681,13.7968013 12.7946079,13.8545039 C13.0188477,13.9122066 13.2566137,13.8412091 13.4125,13.67 L13.4125,13.67 Z M11.6625,11.2125 C12.5797639,10.3947539 13.1105818,9.2287692 13.125,8 C13.112496,6.77238969 12.5844829,5.60658757 11.67,4.7875 C11.4132181,4.56736519 11.0279084,4.59144219 10.8005282,4.84183103 C10.5731481,5.09221987 10.5862086,5.47806012 10.83,5.7125 C11.4830652,6.29518928 11.8620883,7.12486903 11.875,8 C11.8620883,8.87513097 11.4830652,9.70481072 10.83,10.2875 C10.6572436,10.4356011 10.5786293,10.6658909 10.6247625,10.8887147 C10.6708958,11.1115385 10.834486,11.2916824 11.0518454,11.3590143 C11.2692049,11.4263462 11.5059833,11.3702252 11.67,11.2125 L11.6625,11.2125 Z" id="Shape"></path>
            </g>
        </g>
    </g>
</svg>