<?xml version="1.0" encoding="UTF-8"?>
<svg width="17px" height="17px" viewBox="0 0 17 17" version="1.1" xmlns="http://www.w3.org/2000/svg" xmlns:xlink="http://www.w3.org/1999/xlink">
    <title>i/obj/clock</title>
    <g id="Login-&amp;-Dashboard" stroke="none" stroke-width="1" fill="none" fill-rule="evenodd">
        <g id="3.2-Management-console---Dashboard" transform="translate(-1110.000000, -17.000000)" fill="#111111">
            <g id="Group-10" transform="translate(970.000000, 10.000000)">
                <g id="licensingBanner/button/trial-info" transform="translate(131.000000, 0.000000)">
                    <g id="Group" transform="translate(10.000000, 6.000000)">
                        <g transform="translate(0.000000, 1.000000)" id="i/obj/clock">
                            <path d="M13.06,5.06 C12.63115,5.48938404 11.9858268,5.61805988 11.4250861,5.38599782 C10.8643453,5.15393575 10.4986801,4.60686324 10.4986801,4 C10.4986801,3.39313676 10.8643453,2.84606425 11.4250861,2.61400218 C11.9858268,2.38194012 12.63115,2.51061596 13.06,2.94 C13.6449068,3.52563509 13.6449068,4.47436491 13.06,5.06 Z M7.67,15.7125 L15.67,7.7125 C15.8817415,7.50219491 16.0005671,7.21593316 16.000002,6.9175 L16.000002,1.125 C15.9986251,0.504250037 15.49575,0.00137486655 14.875,-2.02048801e-06 L9.0825,-2.02048801e-06 C8.78406684,-0.000567085176 8.49780509,0.118258548 8.2875,0.33 L0.2875,8.33 C0.0762107962,8.5406122 -0.04254732,8.82667028 -0.04254732,9.125 C-0.04254732,9.42332972 0.0762107962,9.7093878 0.2875,9.92 L6.08,15.7125 C6.2906122,15.9237892 6.57667028,16.0425473 6.875,16.0425473 C7.17332972,16.0425473 7.4593878,15.9237892 7.67,15.7125 Z M9.135,1.25 L14.75,1.25 L14.75,6.865 L6.875,14.75 L1.25,9.125 L9.135,1.25 Z M7.5675,12.3175 C7.80958696,12.0721662 7.80958696,11.6778338 7.5675,11.4325 L4.8175,8.6825 C4.573114,8.43811401 4.17688601,8.43811402 3.93250001,8.68250001 C3.68811402,8.92688601 3.68811401,9.323114 3.9325,9.5675 L6.6825,12.3175 C6.92727474,12.5609457 7.32272526,12.5609457 7.5675,12.3175 L7.5675,12.3175 Z M9.3175,10.3175 C9.55958696,10.0721662 9.55958696,9.67783382 9.3175,9.4325 L6.5675,6.6825 C6.323114,6.438114 5.926886,6.438114 5.6825,6.6825 C5.438114,6.926886 5.438114,7.323114 5.6825,7.5675 L8.4325,10.3175 C8.67727474,10.5609457 9.07272526,10.5609457 9.3175,10.3175 Z" id="Shape"></path>
                        </g>
                    </g>
                </g>
            </g>
        </g>
    </g>
</svg>