<?xml version="1.0" encoding="UTF-8"?>
<svg width="30px" height="30px" viewBox="0 0 30 30" version="1.1" xmlns="http://www.w3.org/2000/svg" xmlns:xlink="http://www.w3.org/1999/xlink">
    <title>i/general/upload</title>
    <g id="i/general/upload" stroke="none" stroke-width="1" fill="none" fill-rule="evenodd">
        <path d="M15,17.62434 C14.5857864,17.62434 14.25,17.2885536 14.25,16.87434 L14.25,9.55434003 L12.525,11.27934 C12.2294902,11.5546989 11.7689903,11.5465739 11.4833782,11.2609618 C11.1977661,10.9753498 11.1896411,10.5148498 11.465,10.21934 L14.465,7.21934003 C14.7578175,6.92688666 15.2321825,6.92688666 15.525,7.21934003 L18.525,10.21934 C18.8003589,10.5148498 18.7922339,10.9753498 18.5066218,11.2609618 C18.2210097,11.5465739 17.7605098,11.5546989 17.465,11.27934 L15.75,9.55434003 L15.75,16.87434 C15.75,17.2885536 15.4142136,17.62434 15,17.62434 Z M23,21.24434 L23,18.24434 C23,17.8301265 22.6642136,17.49434 22.25,17.49434 C21.8357864,17.49434 21.5,17.8301265 21.5,18.24434 L21.5,21.24434 C21.5,21.3824112 21.3880712,21.49434 21.25,21.49434 L8.75,21.49434 C8.61192881,21.49434 8.5,21.3824112 8.5,21.24434 L8.5,18.24434 C8.5,17.8301265 8.16421356,17.49434 7.75,17.49434 C7.33578644,17.49434 7,17.8301265 7,18.24434 L7,21.24434 C7,22.2108383 7.78350169,22.99434 8.75,22.99434 L21.25,22.99434 C22.2164983,22.99434 23,22.2108383 23,21.24434 Z" id="Shape" fill="#0079AA" fill-rule="nonzero"></path>
    </g>
</svg>