<?xml version="1.0" encoding="UTF-8"?>
<svg width="30px" height="30px" viewBox="0 0 30 30" version="1.1" xmlns="http://www.w3.org/2000/svg" xmlns:xlink="http://www.w3.org/1999/xlink">
    <title>i/general/video</title>
    <g id="i/general/video" stroke="none" stroke-width="1" fill="none" fill-rule="evenodd">
        <g id="Group" transform="translate(7.000000, 7.000000)" fill="#0079AA" fill-rule="nonzero">
            <g id="i/general/video">
                <path d="M10.5675,14 L1.4325,14 C0.641922804,13.9986239 0.00137611661,13.3580772 0,12.5675 L0,3.4325 C0.00137611661,2.6419228 0.641922804,2.00137612 1.4325,2 L10.5675,2 C11.3580772,2.00137612 11.9986239,2.6419228 12,3.4325 L12,5.0825 L15.105,3.6 C15.2984703,3.50732672 15.5259505,3.52035224 15.707578,3.63450361 C15.8892056,3.74865498 15.9995983,3.94797977 16,4.1625 L16,11.885 C15.9995983,12.0995202 15.8892056,12.298845 15.707578,12.4129964 C15.5259505,12.5271478 15.2984703,12.5401733 15.105,12.4475 L12,10.965 L12,12.5675 C11.9986239,13.3580772 11.3580772,13.9986239 10.5675,14 Z M1.4325,3.25 C1.33170803,3.25 1.25,3.33170803 1.25,3.4325 L1.25,12.5675 C1.25,12.668292 1.33170803,12.75 1.4325,12.75 L10.5675,12.75 C10.668292,12.75 10.75,12.668292 10.75,12.5675 L10.75,3.4325 C10.75,3.33170803 10.668292,3.25 10.5675,3.25 L1.4325,3.25 Z M12,9.58 L12.0225,9.58 L14.75,10.8925 L14.75,5.155 L12.0225,6.455 L12,6.4675 L12,9.58 Z M3.25,4.25 C2.69771525,4.25 2.25,4.69771525 2.25,5.25 C2.25,5.80228475 2.69771525,6.25 3.25,6.25 C3.80228475,6.25 4.25,5.80228475 4.25,5.25 C4.25,4.69771525 3.80228475,4.25 3.25,4.25 Z" id="Shape"></path>
            </g>
        </g>
    </g>
</svg>