<?xml version="1.0" encoding="UTF-8"?>
<svg width="16px" height="16px" viewBox="0 0 16 16" version="1.1" xmlns="http://www.w3.org/2000/svg" xmlns:xlink="http://www.w3.org/1999/xlink">
    <title>i/general/document-up</title>
    <g id="Symbols" stroke="none" stroke-width="1" fill="none" fill-rule="evenodd">
        <g id="i/general/document-up" fill="#0079AA" fill-rule="nonzero">
            <path d="M6.125,16 L2.625,16 C1.72810813,15.9986233 1.00137666,15.2718919 0.999999994,14.375 L0.999999994,3.875 C0.999999994,3.70918054 1.06558995,3.55009308 1.1825,3.4325 L4.4325,0.1825 C4.55009308,0.0655899455 4.70918054,-5.73108139e-09 4.875,-5.73108139e-09 L11.375,-5.73108139e-09 C12.2718919,0.00137665918 12.9986233,0.728108131 13,1.625 L13,4.625 C13,4.97017797 12.720178,5.25 12.375,5.25 C12.029822,5.25 11.75,4.97017797 11.75,4.625 L11.75,1.625 C11.75,1.41789322 11.5821068,1.25 11.375,1.25 L5.99999999,1.25 L5.99999999,3.625 C5.99862334,4.52189187 5.27189187,5.24862334 4.375,5.25 L2.25,5.25 L2.25,14.375 C2.25,14.5821068 2.41789322,14.75 2.625,14.75 L6.125,14.75 C6.47017797,14.75 6.75,15.029822 6.75,15.375 C6.75,15.720178 6.47017797,16 6.125,16 Z M2.375,4 L4.375,4 C4.58210678,4 4.75,3.83210678 4.75,3.625 L4.75,1.625 L2.375,4 Z M11.25,6.5 C13.8733526,6.5 16,8.62664744 16,11.25 C16,13.8733526 13.8733526,16 11.25,16 C8.62664744,16 6.5,13.8733526 6.5,11.25 C6.5,8.62664744 8.62664744,6.5 11.25,6.5 Z M11.78,7.97 C11.4871825,7.67754662 11.0128175,7.67754662 10.72,7.97 L10.72,7.97 L8.47,10.22 C8.19464114,10.5155098 8.20276612,10.9760097 8.4883782,11.2616218 C8.77399028,11.5472339 9.23449025,11.5553589 9.53,11.28 L9.53,11.28 L10.5,10.31 L10.5,14 C10.5,14.4142136 10.8357864,14.75 11.25,14.75 C11.6642136,14.75 12,14.4142136 12,14 L12,14 L12,10.31 L12.97,11.28 C13.2655098,11.5553589 13.7260097,11.5472339 14.0116218,11.2616218 C14.2972339,10.9760097 14.3053589,10.5155098 14.03,10.22 L14.03,10.22 Z" id="Shape"></path>
        </g>
    </g>
</svg>