<?xml version="1.0" encoding="UTF-8"?>
<svg width="14px" height="14px" viewBox="0 0 14 14" version="1.1" xmlns="http://www.w3.org/2000/svg" xmlns:xlink="http://www.w3.org/1999/xlink">
    <title>i/general/goto</title>
    <g id="Demo-screens" stroke="none" stroke-width="1" fill="none" fill-rule="evenodd">
        <g id="4.2-Demo-screens" transform="translate(-716.000000, -597.000000)" fill="#0079AA" fill-rule="nonzero">
            <g id="Group-6" transform="translate(670.000000, 483.000000)">
                <g id="i/general/goto" transform="translate(46.000000, 114.000000)">
                    <path d="M0.65625,14 C0.482260318,13.9998468 0.315452688,13.9306059 0.1925,13.8075 C-0.0633967058,13.5512846 -0.0633967058,13.1362154 0.1925,12.88 L5.1975,7.875 L2.84375,7.875 C2.48131313,7.875 2.1875,7.58118687 2.1875,7.21875 C2.1875,6.85631313 2.48131313,6.5625 2.84375,6.5625 L6.78125,6.5625 C7.14368687,6.5625 7.4375,6.85631313 7.4375,7.21875 L7.4375,11.15625 C7.4375,11.5186869 7.14368687,11.8125 6.78125,11.8125 C6.41881313,11.8125 6.125,11.5186869 6.125,11.15625 L6.125,8.8025 L1.12,13.8075 C0.997047312,13.9306059 0.830239682,13.9998468 0.65625,14 Z M14,10.390625 L14,1.421875 C13.9987954,0.637094615 13.3629054,0.00120457678 12.578125,0 L3.609375,0 C2.82459461,0.00120457678 2.18870458,0.637094615 2.1875,1.421875 L2.1875,4.484375 C2.1875,4.78640572 2.43234428,5.03125 2.734375,5.03125 C3.03640572,5.03125 3.28125,4.78640572 3.28125,4.484375 L3.28125,1.421875 C3.28125,1.24065657 3.42815657,1.09375 3.609375,1.09375 L12.578125,1.09375 C12.7593434,1.09375 12.90625,1.24065657 12.90625,1.421875 L12.90625,10.390625 C12.90625,10.5718434 12.7593434,10.71875 12.578125,10.71875 L9.515625,10.71875 C9.21359428,10.71875 8.96875,10.9635943 8.96875,11.265625 C8.96875,11.5676557 9.21359428,11.8125 9.515625,11.8125 L12.578125,11.8125 C13.3629054,11.8112954 13.9987954,11.1754054 14,10.390625 L14,10.390625 Z" id="Shape"></path>
                </g>
            </g>
        </g>
    </g>
</svg>