<?xml version="1.0" encoding="UTF-8"?>
<svg width="16px" height="16px" viewBox="0 0 16 16" version="1.1" xmlns="http://www.w3.org/2000/svg" xmlns:xlink="http://www.w3.org/1999/xlink">
    <title>i/obj/path-origin</title>
    <g id="i/obj/path-origin" fill="#FFFFFF">
        <path d="M8.75,16 L1.75,16 C0.783501688,16 0,15.2164983 0,14.25 L0,1.75 C0,0.783501688 0.783501688,0 1.75,0 L8.75,0 C9.71649831,0 10.5,0.783501688 10.5,1.75 L10.5,3.25 C10.5,3.66421356 10.1642136,4 9.75,4 C9.33578644,4 9,3.66421356 9,3.25 L9,1.75 C9,1.61192881 8.88807119,1.5 8.75,1.5 L1.75,1.5 C1.61192881,1.5 1.5,1.61192881 1.5,1.75 L1.5,14.25 C1.5,14.3880712 1.61192881,14.5 1.75,14.5 L8.75,14.5 C8.88807119,14.5 9,14.3880712 9,14.25 L9,12.75 C9,12.3357864 9.33578644,12 9.75,12 C10.1642136,12 10.5,12.3357864 10.5,12.75 L10.5,14.25 C10.5,15.2164983 9.71649831,16 8.75,16 Z M12.25,11.75 C12.0511546,11.7498249 11.8605174,11.6706925 11.72,11.53 C11.4275466,11.2371825 11.4275466,10.7628175 11.72,10.47 L13.445,8.745 L6.25,8.745 C5.83578644,8.745 5.5,8.40921356 5.5,7.995 C5.5,7.58078644 5.83578644,7.245 6.25,7.245 L13.44,7.245 L11.715,5.52 C11.4396411,5.22449025 11.4477661,4.76399028 11.7333782,4.4783782 C12.0189903,4.19276612 12.4794902,4.18464114 12.775,4.46 L15.775,7.46 C16.0674534,7.75281755 16.0674534,8.22718245 15.775,8.52 L12.775,11.52 C12.6373526,11.6631502 12.448549,11.7458642 12.25,11.75 Z" id="Shape"></path>
    </g>
</svg>

