<?xml version="1.0" encoding="UTF-8"?>
<svg width="26px" height="26px" viewBox="0 0 26 26" version="1.1" xmlns="http://www.w3.org/2000/svg" xmlns:xlink="http://www.w3.org/1999/xlink">
    <title>i/general/menu-old</title>
    <defs>
        <filter x="-3.8%" y="-4.5%" width="107.5%" height="109.0%" filterUnits="objectBoundingBox" id="filter-1">
            <feOffset dx="0" dy="1" in="SourceAlpha" result="shadowOffsetOuter1"></feOffset>
            <feGaussianBlur stdDeviation="2.5" in="shadowOffsetOuter1" result="shadowBlurOuter1"></feGaussianBlur>
            <feColorMatrix values="0 0 0 0 0.0666666667   0 0 0 0 0.0666666667   0 0 0 0 0.0666666667  0 0 0 0.2 0" type="matrix" in="shadowBlurOuter1" result="shadowMatrixOuter1"></feColorMatrix>
            <feMerge>
                <feMergeNode in="shadowMatrixOuter1"></feMergeNode>
                <feMergeNode in="SourceGraphic"></feMergeNode>
            </feMerge>
        </filter>
    </defs>
    <g id="Mobile-version" stroke="none" stroke-width="1" fill="none" fill-rule="evenodd">
        <g id="1-Mobile" transform="translate(-10.000000, -30.000000)" fill="#FFFFFF">
            <g id="platformbar/small" filter="url(#filter-1)" transform="translate(0.000000, 17.000000)">
                <g id="i/general/menu-old" transform="translate(15.000000, 17.000000)">
                    <path d="M15,9 L1,9 C0.44771525,9 0,8.55228475 0,8 C0,7.44771525 0.44771525,7 1,7 L15,7 C15.5522847,7 16,7.44771525 16,8 C16,8.55228475 15.5522847,9 15,9 Z M16,15 C16,14.4477153 15.5522847,14 15,14 L1,14 C0.44771525,14 0,14.4477153 0,15 C0,15.5522847 0.44771525,16 1,16 L15,16 C15.5522847,16 16,15.5522847 16,15 Z M16,1 C16,0.44771525 15.5522847,0 15,0 L1,0 C0.44771525,0 0,0.44771525 0,1 C0,1.55228475 0.44771525,2 1,2 L15,2 C15.5522847,2 16,1.55228475 16,1 Z" id="Shape"></path>
                </g>
            </g>
        </g>
    </g>
</svg>