<?xml version="1.0" encoding="UTF-8"?>
<svg width="30px" height="30px" viewBox="0 0 30 30" version="1.1" xmlns="http://www.w3.org/2000/svg" xmlns:xlink="http://www.w3.org/1999/xlink">
    <title>i/general/refresh</title>
    <g id="i/general/refresh" stroke="none" stroke-width="1" fill="none" fill-rule="evenodd">
        <path d="M17.9561069,11.7417689 C17.9561069,12.1559825 18.2918934,12.4917689 18.7061069,12.4917689 L22.2061069,12.4917689 C22.6203205,12.4917689 22.9561069,12.1559825 22.9561069,11.7417689 L22.9561069,8.24176894 C22.9561069,7.82755538 22.6203205,7.49176894 22.2061069,7.49176894 C21.7918934,7.49176894 21.4561069,7.82755538 21.4561069,8.24176894 L21.4561069,10.1467689 L20.4861069,9.17676894 C17.7819532,6.62956514 13.6801143,6.2790509 10.5829905,8.33051843 C7.48586675,10.381986 6.20848151,14.2955815 7.4989848,17.7791566 C8.78948809,21.2627318 12.3082776,23.3995666 15.9944384,22.9381413 C19.6805992,22.4767161 22.5640999,19.538457 22.9561069,15.8442689 C22.9842416,15.5763197 22.8672899,15.3137148 22.6493064,15.1553749 C22.431323,14.9970349 22.1454246,14.9670156 21.8993064,15.0766249 C21.6531883,15.1862341 21.4842416,15.4188197 21.4561069,15.6867689 C21.1366147,18.6862217 18.7955685,21.0717508 15.8026602,21.4476386 C12.8097518,21.8235264 9.95150632,20.0909909 8.90021675,17.2636985 C7.84892717,14.4364062 8.88086846,11.2573586 11.3922757,9.58654273 C13.903683,7.91572688 17.2345678,8.19222686 19.4361069,10.2542689 L20.1861069,10.9917689 L18.7061069,10.9917689 C18.2918934,10.9917689 17.9561069,11.3275554 17.9561069,11.7417689 Z" id="Path" fill="#0079AA" fill-rule="nonzero"></path>
    </g>
</svg>