<?xml version="1.0" encoding="UTF-8"?>
<svg width="30px" height="30px" viewBox="0 0 30 30" version="1.1" xmlns="http://www.w3.org/2000/svg" xmlns:xlink="http://www.w3.org/1999/xlink">
  <title>i/general/star-empty</title>
  <g id="i/general/star-empty" stroke="none" stroke-width="1" fill="none" fill-rule="evenodd">
    <g id="Group" transform="translate(7.000000, 7.000000)" fill="#0079AA" fill-rule="nonzero">
      <g id="i/obj/calendar-copy-11">
        <path d="M12.015,14.8075 C11.8354674,14.8055101 11.6589681,14.7609568 11.5,14.6775 L8,12.8425 L4.5125,14.6775 C4.1314081,14.87603 3.67078501,14.84178 3.32324528,14.589072 C2.97570554,14.336364 2.80112252,13.908734 2.8725,13.485 L3.5375,9.6025 L0.7175,6.8525 C0.407872591,6.55227878 0.296134926,6.10199434 0.42948543,5.69184857 C0.562835934,5.28170279 0.918017479,4.98322757 1.345,4.9225 L5.25,4.355 L7,0.8225 C7.19100667,0.436551763 7.58437303,0.19232584 8.015,0.19232584 C8.44562697,0.19232584 8.83899333,0.436551763 9.03,0.8225 L10.78,4.355 L14.6775,4.9225 C15.1044825,4.98322757 15.4596641,5.28170279 15.5930146,5.69184857 C15.7263651,6.10199434 15.6146274,6.55227878 15.305,6.8525 L12.485,9.6025 L13.15,13.485 C13.205851,13.8131705 13.1144896,14.1492934 12.9001973,14.4040365 C12.6859049,14.6587795 12.3703872,14.8063398 12.0375,14.8075 L12.015,14.8075 Z M1.7625,6.125 L4.645,8.935 C4.79581467,9.08131632 4.86338372,9.29340808 4.825,9.5 L4.145,13.4575 L7.71,11.5825 C7.89162931,11.4873627 8.10837069,11.4873627 8.29,11.5825 L11.855,13.4575 L11.175,9.5 C11.1401139,9.29665847 11.2074106,9.08916028 11.355,8.945 L14.25,6.125 L10.25,5.545 C10.0465248,5.51511419 9.87077448,5.38704082 9.78,5.2025 L8,1.5925 L6.2175,5.2025 C6.12721306,5.3863825 5.95254606,5.5143471 5.75,5.545 L1.7625,6.125 Z" id="Shape"></path>
      </g>
    </g>
  </g>
</svg>
