<svg id="Layer_1" data-name="Layer 1" xmlns="http://www.w3.org/2000/svg" width="141.11mm" height="35.28mm"
     viewBox="0 0 400 100">
    <defs>
        <style>.cls-1{fill:#000;}.cls-2{fill:#f99d1c;}</style>
    </defs>
    <path id="label-SW" class="cls-1"
          d="M118.6,56.91a12.14,12.14,0,0,1-4.5-.8V53.84a20.75,20.75,0,0,0,4.48.86c1.48,0,2.92-.27,2.92-2,0-1.34-1-1.64-2.27-2l-1.17-.31c-1.53-.41-4-1-4-4,0-3.36,2.78-4.17,5.65-4.17a8.93,8.93,0,0,1,4,.86v2.19a11.11,11.11,0,0,0-4.14-.86c-1.81-.05-2.92.29-2.92,1.79,0,1.31,1,1.62,2.29,1.95l1.41.37c1.66.43,3.8,1.39,3.8,4.06C124.12,56,121.64,56.91,118.6,56.91Zm15.22,0c-2.82,0-6.74-.85-6.74-7.33,0-6.28,4-7.34,6.74-7.34,2.62,0,6.74.86,6.74,7.34S136.52,56.91,133.82,56.91Zm0-12.7c-1.51,0-4,.45-4,5.37s2.89,5.33,4,5.33c1.34,0,4-.54,4-5.33,0-5-2.51-5.37-4-5.37Zm10.27,12.43V37.83h2.73V56.64Zm16.18,0L160,54.8a6.31,6.31,0,0,1-4.72,2.11c-2.22,0-4.65-.78-4.65-4.35,0-3.92,3.77-4.67,6.12-4.67H160V46.66c0-1.84-1.12-2.26-3-2.26a17.83,17.83,0,0,0-5.08,1V43.23a16.15,16.15,0,0,1,5.43-1c3.16,0,5.35,1.15,5.35,4.86v9.54Zm-.36-7.15h-2.62c-2.49,0-3.95.67-3.95,3,0,1.81,1.14,2.35,2.62,2.35,2,0,4-1.84,4-1.84Zm12.6-4.85a4.27,4.27,0,0,0-2.87,1.71V56.6h-2.72V42.5h2.19l.36,2a4.06,4.06,0,0,1,5.35-1.84V45a5.69,5.69,0,0,0-2.31-.4Zm23.8,12h-3.78l-2.24-7.52c-.61-2-1.47-5.31-1.47-5.31s-.93,3.33-1.51,5.28l-2.23,7.55h-3.77L177.49,42.5h3.11l1.75,8.11c.41,1.87.87,4.81.87,4.81s.58-2.94,1.15-4.81l2.48-8.11h3.93l2.48,8.11c.57,1.84,1.21,4.81,1.21,4.81s.43-2.7.87-4.81l1.75-8.11h3.06Zm7.23,0V42.41h2.73V56.64Zm17.11,0V47c0-1.76-.74-2.43-2.63-2.43a9.23,9.23,0,0,0-4.77,1.79V56.64h-2.73V42.5h2.1l.54,2a9,9,0,0,1,5.48-2.27c2.68,0,4.7,1.15,4.7,4.76v9.65Zm16.89,0-.3-1.79a6,6,0,0,1-4.67,2c-2.26,0-6-1-6-7.33s4.61-7.34,6.54-7.34a5.19,5.19,0,0,1,3.83,1.41V37.86h2.72v18.8Zm-.6-10.86a5.82,5.82,0,0,0-3.55-1.42c-2,0-4.1.78-4.1,5.21,0,4.67,2.14,5.22,3.82,5.22a6.83,6.83,0,0,0,3.83-1.62Zm11.13,11.13a12.19,12.19,0,0,1-4.51-.8V53.84a20.75,20.75,0,0,0,4.48.86c1.48,0,2.92-.27,2.92-2,0-1.34-1-1.64-2.26-2l-1.17-.31c-1.54-.43-4-1-4-4,0-3.36,2.78-4.16,5.64-4.16a8.9,8.9,0,0,1,4,.85v2.19a10.91,10.91,0,0,0-4.14-.85c-1.8,0-2.95.35-2.95,1.87,0,1.31,1,1.62,2.29,1.95l1.42.37c1.66.43,3.79,1.39,3.79,4C253.58,56,251.09,56.91,248.07,56.91Z"/>
    <path id="flame" class="cls-2"
          d="M266.3,33.89l.37-.1a73,73,0,0,0,8.14-2.92,30.2,30.2,0,0,0,7.47-4.16,15.9,15.9,0,0,0,5.25-7.24A6.89,6.89,0,0,0,288,18c-3.64,4.86-18,5.36-18,5.36l3.4-3.05A48.27,48.27,0,0,0,245.79,29a26.26,26.26,0,0,1,14.63,6.4C262.34,34.84,264.33,34.42,266.3,33.89Zm22.6-.5a80.88,80.88,0,0,0-27.1,3.42,25.53,25.53,0,0,1,4.56,6.36C273.61,39.17,283.66,34.12,288.9,33.39ZM267.26,45.16a24.84,24.84,0,0,1,1.64,6.72l12.67-12.72ZM274,51.42v-.14a.31.31,0,0,0-.06-.16.18.18,0,0,0-.15-.07h.13a.22.22,0,0,0,.12-.2.25.25,0,0,0-.18-.26.86.86,0,0,0-.32,0h-.4v1h.21V51.2h.15a.37.37,0,0,1,.21,0c.06,0,.09.09.09.2v.15H274Zm-.65-.76h.14a.45.45,0,0,1,.23,0,.15.15,0,0,1,.07.12.17.17,0,0,1-.07.13.61.61,0,0,1-.19,0h-.15Zm.77-.28a.87.87,0,0,0-.86-.22.86.86,0,0,0-.4,1.45.88.88,0,0,0,.63.26.86.86,0,0,0,.63-.26.86.86,0,0,0,0-1.23Zm-.63,1.33a.66.66,0,0,1-.51-.21.67.67,0,0,1-.21-.51.73.73,0,0,1,1.45,0,.72.72,0,0,1-.73.71Z"/>
    <path id="serv-U" class="cls-1"
          d="M202.25,73.45A3.39,3.39,0,0,1,201,76.26a5.68,5.68,0,0,1-3.57,1,8.54,8.54,0,0,1-3.72-.7V74.5a10.94,10.94,0,0,0,2,.68,8.54,8.54,0,0,0,1.92.24,3,3,0,0,0,1.92-.49,1.62,1.62,0,0,0,.62-1.33,1.64,1.64,0,0,0-.57-1.27,8.3,8.3,0,0,0-2.35-1.24,6.2,6.2,0,0,1-2.58-1.7,3.58,3.58,0,0,1-.75-2.29A3.19,3.19,0,0,1,195,64.46a4.94,4.94,0,0,1,3.2-1,9.43,9.43,0,0,1,3.83.84l-.7,1.79a8.36,8.36,0,0,0-3.19-.75,2.43,2.43,0,0,0-1.61.46,1.51,1.51,0,0,0-.55,1.22,1.72,1.72,0,0,0,.22.9,2.3,2.3,0,0,0,.72.7,12.22,12.22,0,0,0,1.82.87,9.79,9.79,0,0,1,2.16,1.15,3.35,3.35,0,0,1,1,1.2A3.63,3.63,0,0,1,202.25,73.45ZM209,77.27a4.9,4.9,0,0,1-3.7-1.38A5.2,5.2,0,0,1,204,72.1a5.73,5.73,0,0,1,1.24-3.91,4.29,4.29,0,0,1,3.4-1.42A4.2,4.2,0,0,1,211.82,68,4.67,4.67,0,0,1,213,71.34v1.17h-6.75a3.34,3.34,0,0,0,.79,2.27,2.79,2.79,0,0,0,2.12.79,7.94,7.94,0,0,0,1.67-.17,8.85,8.85,0,0,0,1.67-.56v1.75a7,7,0,0,1-1.6.53A10.07,10.07,0,0,1,209,77.27Zm-.39-8.87a2.18,2.18,0,0,0-1.65.65,3.15,3.15,0,0,0-.74,1.9h4.6a2.79,2.79,0,0,0-.6-1.9A2.07,2.07,0,0,0,208.65,68.4Zm11.92-1.63a5.27,5.27,0,0,1,1.07.09l-.21,2a4.19,4.19,0,0,0-1-.11,2.79,2.79,0,0,0-2.1.84,3.09,3.09,0,0,0-.8,2.19v5.3h-2.15V67h1.69l.28,1.79h.11a4,4,0,0,1,1.31-1.44A3.2,3.2,0,0,1,220.57,66.77Zm5.26,10.32L222,67h2.27l2.07,5.9a12.43,12.43,0,0,1,.64,2.4H227a17.07,17.07,0,0,1,.64-2.4l2.07-5.9H232l-3.87,10.14ZM232.69,73V71.14h4.71V73Zm17.65-9.29v8.67a5.09,5.09,0,0,1-.64,2.6,4.24,4.24,0,0,1-1.84,1.71,6.41,6.41,0,0,1-2.88.6A5.38,5.38,0,0,1,241.1,76a4.76,4.76,0,0,1-1.38-3.62V63.69h2.2v8.48a3.37,3.37,0,0,0,.77,2.45,3.18,3.18,0,0,0,2.36.78q3.1,0,3.1-3.25V63.69Zm3.89.73a.2.2,0,0,0-.22-.2h-.14v.36H254c.14,0,.22,0,.22-.16Zm.09.91-.34-.5h-.09v.5h-.28V64h.45a.5.5,0,0,1,.37.11.38.38,0,0,1-.11.66l.37.5Zm.71-.61a1,1,0,0,0-.09-.44.65.65,0,0,0-.22-.33.73.73,0,0,0-.31-.19.89.89,0,0,0-.4-.06,1.84,1.84,0,0,0-.4.06,1.08,1.08,0,0,0-.31.19.92.92,0,0,0-.23.33,1.12,1.12,0,0,0,0,.88.66.66,0,0,0,.23.33.67.67,0,0,0,.31.19.87.87,0,0,0,.4.06,1.68,1.68,0,0,0,.4-.06,1.23,1.23,0,0,0,.31-.19.91.91,0,0,0,.22-.33,1.15,1.15,0,0,0,.09-.44Zm.17,0a1.4,1.4,0,0,1-.08.47,1,1,0,0,1-.26.36,1,1,0,0,1-.37.24,1.24,1.24,0,0,1-.48.09,1.33,1.33,0,0,1-.49-.09.85.85,0,0,1-.37-.24.9.9,0,0,1-.22-.36,1.27,1.27,0,0,1,0-.94.84.84,0,0,1,.25-.36,1.07,1.07,0,0,1,.37-.24,1.3,1.3,0,0,1,.49-.09,1.24,1.24,0,0,1,.48.09.85.85,0,0,1,.37.24.74.74,0,0,1,.23.36,1.21,1.21,0,0,1,.08.47Z"/>
</svg>
